<?xml version="1.0" standalone="no"?>
<!DOCTYPE svg PUBLIC "-//W3C//DTD SVG 20010904//EN"
 "http://www.w3.org/TR/2001/REC-SVG-20010904/DTD/svg10.dtd">
<svg version="1.0" xmlns="http://www.w3.org/2000/svg"
 width="1024.000000pt" height="1024.000000pt" viewBox="0 0 1024.000000 1024.000000"
 preserveAspectRatio="xMidYMid meet">
<metadata>
Created by potrace 1.11, written by Peter Selinger 2001-2013
</metadata>
<g transform="translate(0.000000,1024.000000) scale(0.100000,-0.100000)"
fill="#000000" stroke="none">
<path d="M1179 8966 c-3 -3 -19 -8 -37 -11 -142 -25 -278 -111 -389 -247 -29
-36 -89 -163 -103 -218 -8 -32 -10 -989 -8 -3385 l3 -3340 21 -52 c39 -93 87
-166 154 -234 85 -85 168 -132 314 -177 38 -12 7926 -13 7926 -1 0 5 4 8 8 5
23 -14 252 82 252 105 0 5 5 9 12 9 16 0 148 138 148 155 0 8 4 15 9 15 4 0
20 26 33 57 41 95 47 112 51 148 2 11 6 25 10 32 10 15 4 6600 -6 6638 -15 59
-52 155 -59 155 -5 0 -8 6 -8 13 0 34 -191 244 -211 231 -4 -2 -11 2 -16 9 -8
13 -122 66 -158 73 -11 2 -31 7 -45 11 -26 8 -7893 16 -7901 9z m2808 -2713
l483 -483 -960 -960 -960 -960 -320 320 -320 320 640 640 640 640 -640 640
-640 640 320 320 320 320 478 -478 c262 -262 694 -694 959 -959z m3043 -2083
l0 -320 -1280 0 -1280 0 0 320 0 320 1280 0 1280 0 0 -320z"/>
</g>
</svg>
